<svg width="180" height="42" viewBox="0 0 180 42" fill="none" xmlns="http://www.w3.org/2000/svg">
<g clip-path="url(#clip0_2035_12)">
<path d="M7.11162 41.467C5.30638 41.467 3.86955 40.9696 2.80114 39.9749C1.76958 38.9802 1.25379 37.5249 1.25379 35.6092V27.8172C1.25379 23.9119 1.84326 20.9462 3.02219 18.9199C4.20113 16.8936 5.69322 15.4383 7.49846 14.5541L7.22215 13.5042H6.28268C4.58797 13.5042 3.24324 12.97 2.24852 11.9015C1.29063 10.7963 0.793271 9.3042 0.756429 7.42527C0.719588 5.58319 1.19853 4.10952 2.19326 3.00427C3.22482 1.89902 4.58797 1.3464 6.28268 1.3464H25.6246C29.5666 1.3464 31.5377 3.18848 31.5377 6.87265C31.5377 8.53053 31.0587 9.85683 30.1008 10.8516C29.143 11.8463 27.6509 12.3436 25.6246 12.3436H14.8484C13.4852 12.3436 12.8037 13.1357 12.8037 14.7199V18.6988C14.5352 18.2199 16.3405 17.6673 18.2194 17.041C20.0983 16.4146 21.9036 16.1015 23.6351 16.1015C25.4772 16.1015 26.8956 16.562 27.8903 17.4831C28.9219 18.3673 29.4377 19.7304 29.4377 21.5725C29.4377 23.3777 28.9219 24.7409 27.8903 25.6619C26.8956 26.5461 25.4772 27.0066 23.6351 27.0435C21.9036 27.0803 20.0799 26.804 18.1641 26.2145C16.2852 25.5882 14.48 25.0356 12.7484 24.5567L12.6931 35.6092C12.6931 37.5249 12.1774 38.9802 11.1458 39.9749C10.1511 40.9696 8.80634 41.467 7.11162 41.467Z" fill="#F5EDDF"/>
<path d="M49.6491 41.6328C45.707 41.6328 42.3729 40.767 39.6466 39.0354C36.9203 37.3039 34.8572 34.9092 33.4572 31.8513C32.0572 28.7935 31.3572 25.2751 31.3572 21.2962C31.3572 17.3541 32.0572 13.8542 33.4572 10.7963C34.8572 7.70159 36.9203 5.28846 39.6466 3.5569C42.3729 1.7885 45.707 0.904297 49.6491 0.904297C53.5912 0.904297 56.9069 1.7885 59.5964 3.5569C62.3226 5.28846 64.3858 7.70159 65.7858 10.7963C67.1857 13.8542 67.8857 17.3541 67.8857 21.2962C67.8857 25.2751 67.1857 28.7935 65.7858 31.8513C64.3858 34.9092 62.3226 37.3039 59.5964 39.0354C56.9069 40.767 53.5912 41.6328 49.6491 41.6328ZM38.3203 20.412C38.3203 21.5541 38.5966 22.6409 39.1492 23.6725C39.7018 24.6672 40.7887 25.4777 42.4097 26.104C44.0307 26.6935 46.4439 26.9882 49.6491 26.9882C52.8543 26.9882 55.249 26.6935 56.8332 26.104C58.4543 25.4777 59.5411 24.6672 60.0937 23.6725C60.6463 22.6409 60.9227 21.5541 60.9227 20.412C60.9227 19.233 60.6463 18.1831 60.0937 17.262C59.5411 16.3041 58.4543 15.5489 56.8332 14.9962C55.249 14.4068 52.8543 14.112 49.6491 14.112C46.4439 14.112 44.0307 14.4068 42.4097 14.9962C40.7887 15.5489 39.7018 16.3041 39.1492 17.262C38.5966 18.1831 38.3203 19.233 38.3203 20.412Z" fill="#F5EDDF"/>
<path d="M97.1909 41.467C95.3488 41.467 93.8935 40.9144 92.8251 39.8091C91.7567 38.667 91.1857 37.1934 91.112 35.3881C90.9646 32.2566 90.1725 30.0461 88.7357 28.7566C87.3357 27.4303 85.4568 26.7672 83.0989 26.7672H81.9937V35.6092C81.9937 37.5249 81.4779 38.9802 80.4463 39.9749C79.4147 40.9696 78.0516 41.467 76.3569 41.467C74.5516 41.467 73.1332 40.9696 72.1017 39.9749C71.0701 38.9802 70.5543 37.5249 70.5543 35.6092V27.8172C70.5543 23.9119 71.1254 20.9462 72.2674 18.9199C73.4464 16.8936 74.9385 15.4383 76.7437 14.5541L76.4674 13.5042H75.5832C73.8885 13.5042 72.5438 12.97 71.549 11.9015C70.5911 10.7963 70.0754 9.3042 70.0017 7.42527C69.9648 5.58319 70.4622 4.0911 71.4938 2.94901C72.5253 1.80692 73.8885 1.23587 75.5832 1.23587H89.6751C93.6172 1.23587 96.804 2.19375 99.2356 4.10952C101.667 6.02529 102.883 9.08315 102.883 13.2831C102.883 15.4568 102.514 17.2804 101.778 18.7541C101.041 20.1909 100.101 21.2962 98.9593 22.0699C97.8172 22.8435 96.6198 23.304 95.3672 23.4514V24.1698C97.6514 24.7225 99.5303 25.9382 101.004 27.8172C102.514 29.6961 103.27 32.2197 103.27 35.3881C103.27 37.4144 102.717 38.9433 101.612 39.9749C100.543 40.9696 99.0698 41.467 97.1909 41.467ZM81.7173 18.312C81.7173 19.1225 81.8647 19.6567 82.1594 19.9146C82.4542 20.1725 83.0068 20.3014 83.8173 20.3014H89.012C90.5593 20.3014 91.683 19.9515 92.383 19.2515C93.083 18.5515 93.433 17.5752 93.433 16.3225C93.433 15.0331 93.083 14.0384 92.383 13.3384C91.683 12.6384 90.5593 12.2884 89.012 12.2884H83.8173C83.0068 12.2884 82.4542 12.3989 82.1594 12.62C81.8647 12.841 81.7173 13.3752 81.7173 14.2226V18.312Z" fill="#F5EDDF"/>
<path d="M111.425 41.467C109.583 41.467 108.183 40.896 107.225 39.7539C106.267 38.6118 105.788 37.0828 105.788 35.1671V9.24894C105.788 7.33317 106.138 5.78582 106.838 4.60689C107.575 3.39111 108.515 2.50691 109.657 1.95428C110.836 1.40166 112.107 1.12535 113.47 1.12535C115.496 1.12535 117.209 1.65955 118.609 2.72796C120.009 3.79637 121.096 5.6753 121.87 8.36474L127.838 28.7566H128.722V7.5358C128.722 5.58319 129.22 4.05426 130.215 2.94901C131.209 1.80692 132.628 1.23587 134.47 1.23587C136.386 1.23587 137.804 1.80692 138.725 2.94901C139.683 4.05426 140.162 5.58319 140.162 7.5358V32.5145C140.162 35.6092 139.48 37.8934 138.117 39.367C136.754 40.8407 134.838 41.5775 132.37 41.5775C129.865 41.5775 127.912 40.9144 126.512 39.5881C125.112 38.2618 124.044 36.3092 123.307 33.7302L119.383 20.3014C119.309 19.933 119.162 19.6015 118.941 19.3067C118.757 18.9751 118.499 18.8094 118.167 18.8094C117.762 18.8094 117.486 18.9751 117.338 19.3067C117.191 19.6015 117.117 19.933 117.117 20.3014V35.1671C117.117 37.0828 116.638 38.6118 115.68 39.7539C114.723 40.896 113.304 41.467 111.425 41.467Z" fill="#F5EDDF"/>
<path d="M161.523 41.6328C157.581 41.6328 154.247 40.767 151.521 39.0354C148.795 37.3039 146.731 34.9092 145.331 31.8513C143.931 28.7935 143.231 25.2751 143.231 21.2962C143.231 17.3541 143.931 13.8542 145.331 10.7963C146.731 7.70159 148.795 5.28846 151.521 3.5569C154.247 1.7885 157.581 0.904297 161.523 0.904297C165.465 0.904297 168.781 1.7885 171.471 3.5569C174.197 5.28846 176.26 7.70159 177.66 10.7963C179.06 13.8542 179.76 17.3541 179.76 21.2962C179.76 25.2751 179.06 28.7935 177.66 31.8513C176.26 34.9092 174.197 37.3039 171.471 39.0354C168.781 40.767 165.465 41.6328 161.523 41.6328ZM150.195 20.412C150.195 21.5541 150.471 22.6409 151.023 23.6725C151.576 24.6672 152.663 25.4777 154.284 26.104C155.905 26.6935 158.318 26.9882 161.523 26.9882C164.729 26.9882 167.123 26.6935 168.707 26.104C170.329 25.4777 171.415 24.6672 171.968 23.6725C172.521 22.6409 172.797 21.5541 172.797 20.412C172.797 19.233 172.521 18.1831 171.968 17.262C171.415 16.3041 170.329 15.5489 168.707 14.9962C167.123 14.4068 164.729 14.112 161.523 14.112C158.318 14.112 155.905 14.4068 154.284 14.9962C152.663 15.5489 151.576 16.3041 151.023 17.262C150.471 18.1831 150.195 19.233 150.195 20.412Z" fill="#F5EDDF"/>
</g>
<defs>
<clipPath id="clip0_2035_12">
<rect width="180" height="42" fill="white"/>
</clipPath>
</defs>
</svg>
