<svg width="320" height="320" viewBox="0 0 320 320" fill="none" xmlns="http://www.w3.org/2000/svg">
<path d="M109.049 282.111C98.5956 282.111 90.2756 279.231 84.0889 273.471C78.1156 267.711 75.1289 259.285 75.1289 248.191V203.071C75.1289 180.458 78.5422 163.285 85.3689 151.551C92.1956 139.818 100.836 131.391 111.289 126.271L109.689 120.191H104.249C94.4356 120.191 86.6489 117.098 80.8889 110.911C75.3422 104.511 72.4622 95.8713 72.2489 84.9913C72.0356 74.3247 74.8089 65.7913 80.5689 59.3913C86.5423 52.9913 94.4356 49.7913 104.249 49.7913H216.249C239.076 49.7913 250.489 60.458 250.489 81.7913C250.489 91.3913 247.716 99.0713 242.169 104.831C236.622 110.591 227.982 113.471 216.249 113.471H153.849C145.956 113.471 142.009 118.058 142.009 127.231V150.271C152.036 147.498 162.489 144.298 173.369 140.671C184.249 137.045 194.702 135.231 204.729 135.231C215.396 135.231 223.609 137.898 229.369 143.231C235.342 148.351 238.329 156.245 238.329 166.911C238.329 177.365 235.342 185.258 229.369 190.591C223.609 195.711 215.396 198.378 204.729 198.591C194.702 198.805 184.142 197.205 173.049 193.791C162.169 190.165 151.716 186.965 141.689 184.191L141.369 248.191C141.369 259.285 138.382 267.711 132.409 273.471C126.649 279.231 118.862 282.111 109.049 282.111Z" fill="#F5EDDF"/>
</svg>
